<svg xmlns="http://www.w3.org/2000/svg" xmlns:svgjs="http://svgjs.dev/svgjs" xmlns:xlink="http://www.w3.org/1999/xlink" width="1000" height="462" version="1.1" viewBox="0 0 1000 462"><g transform="matrix(1,0,0,1,-0.6060606060606233,-0.4545103674796849)"><svg xmlns="http://www.w3.org/2000/svg" xmlns:xlink="http://www.w3.org/1999/xlink" width="1000" height="462" data-background-color="#fce44d" preserveAspectRatio="xMidYMid meet" viewBox="0 0 396 183"><g id="tight-bounds" transform="matrix(1,0,0,1,0.2400000000000091,0.18004182488556353)"><svg width="395.52" height="182.64" viewBox="0 0 395.52 182.64"><g><svg width="395.52" height="182.64" viewBox="0 0 397.498 183.553"><g><rect id="o-0" width="397.498" height="5.622" x="0" y="100.873" fill="#374151" fill-opacity="1" stroke="transparent" stroke-width="0" class="rect-o-0" data-fill-palette-color="primary" data-palette-color="#374151" opacity="1" rx="1%"/></g><g transform="matrix(1,0,0,1,0.9887999999999693,121.21196860507459)"><svg width="395.52" height="62.341" viewBox="0 0 395.52 62.341"><g id="textblocktransform"><svg id="textblock" width="395.52" height="62.341" viewBox="0 0 395.52 62.341"><g><svg width="395.52" height="62.341" viewBox="0 0 395.52 62.341"><g transform="matrix(1,0,0,1,0,0)"><svg width="395.52" height="62.341" data-palette-color="#374151" viewBox="3.5 -35.5 228.38 36"><path id="text-0" fill="#374151" d="M27.55-17.5L27.55-17.5Q27.5-9.15 22.93-4.58 18.35 0 10.3 0L10.3 0 3.5 0 3.5-35 10.3-35Q18.35-35 22.93-30.43 27.5-25.85 27.55-17.5ZM8.2-4.4L10.9-4.4Q16.45-4.4 19.43-8.08 22.4-11.75 22.5-17.5L22.5-17.5Q22.4-23.25 19.43-26.93 16.45-30.6 10.9-30.6L10.9-30.6 8.2-30.6 8.2-4.4ZM53.7-4.4L53.7 0 33.8 0 33.8-26.65Q33.8-30.35 36.15-32.6L36.15-32.6Q37.75-34.1 39.75-34.55 41.75-35 44.65-35L44.65-35 53.7-35 53.7-30.6 44-30.6Q38.5-30.6 38.5-26L38.5-26 38.5-20.3 50.05-20.3 50.05-15.9 38.5-15.9 38.5-4.4 53.7-4.4ZM67.95-35L77.1-35 77.1-30.6 68.25-30.6Q63.2-30.6 63.2-26.5L63.2-26.5Q63.2-24.3 65.42-22.78 67.65-21.25 71.45-19.85L71.45-19.85Q73.15-19.2 74.35-18.53 75.55-17.85 76.75-16.75 77.95-15.65 78.55-13.93 79.15-12.2 79.15-9.95L79.15-9.95Q79.15-7.45 78.1-5.48 77.05-3.5 75.4-2.38 73.75-1.25 72.02-0.68 70.3-0.1 68.65-0.05L68.65-0.05Q67.95 0 66.65 0L66.65 0 58.85 0 58.85-4.4 66.5-4.4Q69.9-4.4 72.05-5.83 74.2-7.25 74.2-10L74.2-10Q74.2-11.35 73.6-12.38 73-13.4 71.87-14.15 70.75-14.9 69.57-15.45 68.4-16 66.75-16.6L66.75-16.6Q66.3-16.75 66.05-16.85L66.05-16.85Q58.2-19.85 58.2-26.65L58.2-26.65Q58.2-30.85 60.9-32.93 63.6-35 67.95-35L67.95-35ZM88.59-12.8L88.59 0 84.14 0 84.14-22Q84.14-27.4 87.62-31.2 91.09-35 96.59-35L96.59-35 108.04-35 108.04 0 103.34 0 103.34-30.6 96.59-30.6Q92.94-30.6 90.77-28.45 88.59-26.3 88.59-21.6L88.59-21.6 88.59-17.35Q91.39-20.3 96.59-20.3L96.59-20.3 101.14-20.3 101.14-15.9 96.59-15.9Q93.69-15.9 91.87-15.2 90.04-14.5 88.59-12.8L88.59-12.8ZM119.49-23.2L119.49 0 114.79 0 114.79-23Q114.79-28.9 117.97-32.2 121.14-35.5 126.39-35.5L126.39-35.5Q131.99-35.5 135.07-32.3 138.14-29.1 138.14-24.15L138.14-24.15Q138.14-21.05 137.02-18.75 135.89-16.45 133.99-15.2 132.09-13.95 129.94-13.35 127.79-12.75 125.44-12.75L125.44-12.75 121.69-12.75 121.69-17.15 125.99-17.15Q129.34-17.15 131.27-19.18 133.19-21.2 133.19-24.25L133.19-24.25Q133.19-27.25 131.42-29.18 129.64-31.1 126.34-31.1L126.34-31.1Q123.14-31.1 121.32-28.93 119.49-26.75 119.49-23.2L119.49-23.2ZM163.04-4.4L163.04 0 143.14 0 143.14-26.65Q143.14-30.35 145.49-32.6L145.49-32.6Q147.09-34.1 149.09-34.55 151.09-35 153.99-35L153.99-35 163.04-35 163.04-30.6 153.34-30.6Q147.84-30.6 147.84-26L147.84-26 147.84-20.3 159.39-20.3 159.39-15.9 147.84-15.9 147.84-4.4 163.04-4.4ZM184.94-4.4L184.94-4.4 188.54-4.4 188.54-14.9 183.39-14.9 183.39-19.3 193.24-19.3 193.24 0 185.54 0Q177.49 0 172.91-4.58 168.34-9.15 168.29-17.5L168.29-17.5Q168.34-25.85 172.91-30.43 177.49-35 185.54-35L185.54-35 191.29-35 191.29-30.6 184.94-30.6Q179.39-30.6 176.41-26.93 173.44-23.25 173.34-17.5L173.34-17.5Q173.44-11.75 176.41-8.08 179.39-4.4 184.94-4.4ZM226.83-17.35L226.83-17.35Q226.78-20.15 226.01-22.65 225.23-25.15 223.76-27.03 222.28-28.9 220.18-30 218.08-31.1 215.43-31.1L215.43-31.1Q212.78-31.1 210.68-30 208.58-28.9 207.11-27.03 205.63-25.15 204.86-22.65 204.08-20.15 204.03-17.35L204.03-17.35Q204.08-14.5 204.86-12.05 205.63-9.6 207.11-7.8 208.58-6 210.68-4.95 212.78-3.9 215.43-3.9L215.43-3.9Q218.08-3.9 220.18-4.95 222.28-6 223.76-7.8 225.23-9.6 226.01-12.05 226.78-14.5 226.83-17.35ZM198.98-17.35L198.98-17.35Q199.03-21.5 200.23-24.85 201.43-28.2 203.58-30.58 205.73-32.95 208.73-34.23 211.73-35.5 215.43-35.5L215.43-35.5Q219.08-35.5 222.11-34.23 225.13-32.95 227.28-30.58 229.43-28.2 230.63-24.85 231.83-21.5 231.88-17.35L231.88-17.35Q231.83-13.2 230.66-9.9 229.48-6.6 227.33-4.3 225.18-2 222.16-0.75 219.13 0.5 215.43 0.5L215.43 0.5Q211.73 0.5 208.71-0.75 205.68-2 203.53-4.3 201.38-6.6 200.21-9.9 199.03-13.2 198.98-17.35Z" class="wordmark-text-0" data-fill-palette-color="primary" opacity="1" transform="matrix(1,0,0,1,0,0)"/></svg></g></svg></g></svg></g></svg></g><g transform="matrix(1,0,0,1,154.3716350956791,0)"><svg width="88.754" height="86.155" viewBox="0 0 88.754 86.155"><g><svg xmlns="http://www.w3.org/2000/svg" xmlns:xlink="http://www.w3.org/1999/xlink" id="icon-0" width="88.754" height="86.155" x="0" y="0" class="icon-icon-0" data-fill-palette-color="accent" enable-background="new 0 0 100 100" version="1.1" viewBox="25.648 28.035 49.439 47.992" xml:space="preserve"><g fill="#000" data-fill-palette-color="accent"><g fill="#000" data-fill-palette-color="accent"><g fill="#000" data-fill-palette-color="accent"><g fill="#000" data-fill-palette-color="accent"><g fill="#000" data-fill-palette-color="accent"><g fill="#000" data-fill-palette-color="accent"><path fill="#000" d="M72.534 50.666c1.144 1.744 1.806 3.853 1.806 6.098 0 6.221-5.057 11.3-11.277 11.3-2.428 0-4.696-0.784-6.542-2.089-2.87-2.066-4.756-5.416-4.756-9.211 0-5.557 4.054-10.193 9.371-11.095 0.623-0.122 1.264-0.182 1.927-0.182C67.035 45.487 70.527 47.554 72.534 50.666zM63.604 55v-3.674c0.743 0.241 1.204 0.723 1.405 1.464 0.159 0.623 0.542 0.925 1.123 0.925 0.302 0 0.562-0.103 0.764-0.322 0.22-0.199 0.32-0.461 0.32-0.762 0-0.261-0.06-0.543-0.2-0.863-0.161-0.322-0.362-0.622-0.623-0.921-0.341-0.404-0.723-0.704-1.164-0.885-0.461-0.202-1.003-0.321-1.625-0.401v-0.943c0-0.481-0.201-0.723-0.562-0.723-0.061 0-0.121 0-0.181 0.02-0.261 0.083-0.381 0.302-0.381 0.724v0.04 0.883c-1.224 0.122-2.147 0.482-2.79 1.144-0.642 0.644-0.963 1.466-0.963 2.489 0 0.761 0.161 1.403 0.482 1.885 0.341 0.502 0.762 0.883 1.304 1.145 0.522 0.282 1.184 0.521 1.967 0.741v2.85 1.246c-0.381-0.122-0.663-0.263-0.883-0.442-0.019-0.021-0.04-0.021-0.06-0.04-0.241-0.22-0.422-0.443-0.542-0.701-0.121-0.263-0.262-0.623-0.402-1.105-0.081-0.22-0.201-0.399-0.381-0.521-0.181-0.121-0.421-0.18-0.682-0.18-0.321 0-0.602 0.102-0.823 0.32-0.221 0.24-0.321 0.483-0.321 0.785 0 0.379 0.08 0.76 0.241 1.164 0.161 0.399 0.421 0.779 0.762 1.141 0.201 0.223 0.442 0.423 0.722 0.584 0.161 0.121 0.362 0.238 0.562 0.341 0.521 0.239 1.124 0.399 1.806 0.481v2.387c0 0.263 0.04 0.463 0.12 0.604 0.1 0.118 0.241 0.181 0.462 0.181 0.22 0 0.361-0.082 0.441-0.243 0.06-0.161 0.1-0.399 0.1-0.741v-2.206c0.842-0.062 1.564-0.281 2.167-0.662 0.622-0.36 1.083-0.843 1.404-1.427 0.302-0.579 0.461-1.224 0.461-1.885 0-0.541-0.1-1.023-0.3-1.485-0.141-0.361-0.361-0.683-0.663-0.945-0.04-0.078-0.1-0.137-0.18-0.199-0.341-0.322-0.722-0.561-1.144-0.722C64.908 55.381 64.326 55.2 63.604 55z" data-fill-palette-color="accent"/><path fill="#000" d="M74.901 39.989c0.362 2.567 0.181 4.755-0.401 6.663-2.81-3.192-6.883-5.178-11.438-5.178-8.448 0-15.311 6.863-15.311 15.289 0 5.036 2.448 9.531 6.221 12.303-2.107 2.729-3.672 5.319-3.773 6.961-0.121-1.666-1.665-4.111-3.712-6.659-2.027-2.571-4.555-5.22-6.642-7.267-2.588-2.629-6.061-4.816-8.93-7.524-3.432-3.293-6-7.346-5.077-13.806 0.642-4.255 2.568-7.304 5.077-9.252 3.291-2.566 13.666-5.698 19.264 4.315l0.1 0.602c1.687-4.595 4.014-6.822 8.067-7.966 5.378-1.384 11.679 0.501 14.809 6.181C73.978 36.156 74.581 37.942 74.901 39.989z" data-fill-palette-color="accent"/><path fill="#000" d="M63.604 61.139v-2.246-1.607c0.521 0.181 0.944 0.365 1.244 0.604 0.06 0.02 0.101 0.06 0.14 0.103 0.322 0.277 0.482 0.682 0.482 1.184 0 0.481-0.161 0.9-0.502 1.262C64.647 60.797 64.186 61.04 63.604 61.139z" data-fill-palette-color="accent"/><path fill="#000" d="M62.48 48.638c0-0.422 0.12-0.641 0.381-0.724-0.041 0.282-0.161 0.543-0.381 0.764V48.638z" data-fill-palette-color="accent"/><path fill="#000" d="M61.296 54.017c-0.261-0.243-0.381-0.584-0.381-1.043 0-0.503 0.14-0.866 0.401-1.105 0.281-0.24 0.662-0.441 1.164-0.584v3.375C61.958 54.479 61.557 54.255 61.296 54.017z" data-fill-palette-color="accent"/></g></g></g></g></g></g></svg></g></svg></g></svg></g></svg><rect width="395.52" height="182.64" fill="none" stroke="none" visibility="hidden"/></g></svg></g></svg>